<svg width="36" height="23" viewBox="0 0 36 23" fill="none" xmlns="http://www.w3.org/2000/svg">
<path d="M18.4321 22.6925C24.4962 22.6925 29.4121 17.7766 29.4121 11.7125C29.4121 5.64841 24.4962 0.732483 18.4321 0.732483C12.368 0.732483 7.45203 5.64841 7.45203 11.7125C7.45203 17.7766 12.368 22.6925 18.4321 22.6925Z" fill="#CE2929"/>
<path d="M11.5316 9.78933H7.07516V16.0374C7.07516 16.4109 6.96975 16.7159 6.75934 16.9529C6.54851 17.1895 6.12644 17.3081 5.4923 17.3081C5.08392 17.3081 4.64982 17.2886 4.18915 17.2496L3.99368 16.1942C4.48008 16.2333 5.05778 16.2528 5.72678 16.2528C5.80065 16.2528 5.86789 16.2138 5.92889 16.1353C5.9899 16.0573 6.0202 15.9747 6.0202 15.8876V11.073C4.81707 12.8841 3.02545 14.5305 0.644932 16.0116L0 15.1451C2.55856 13.6378 4.43277 11.8528 5.62261 9.78933H0.266439V8.79247H6.01937V5.93219H7.07475V8.79247H11.5312V9.78933H11.5316Z" fill="white"/>
<path d="M22.5768 8.19317C22.2858 10.0914 21.7492 11.7266 20.9673 13.0991C21.5841 13.5855 22.0729 14.0005 22.4332 14.3437L21.7098 15.1451C21.3101 14.7629 20.8715 14.374 20.3938 13.9789C19.282 15.4642 17.8352 16.7022 16.0544 17.6925L15.3053 16.9039C17.1339 15.8614 18.5478 14.6736 19.5468 13.3402C18.8084 12.7841 17.9116 12.1848 16.8558 11.5419L17.4812 10.7534C18.4021 11.2875 19.2795 11.8524 20.1132 12.4475C20.6432 11.5743 21.0383 10.4928 21.2989 9.2029H17.3638C16.6383 10.5974 15.8195 11.781 14.9073 12.7538L14.0279 12.1412C15.37 10.799 16.5711 8.74472 17.631 5.97781L18.6018 6.29696C18.4412 6.85308 18.1868 7.48473 17.8394 8.19275H22.5768V8.19317Z" fill="white"/>
<path d="M36 8.44094C35.8435 10.2956 35.3343 11.9561 34.4723 13.4219C33.6099 14.8878 32.0171 16.3158 29.6934 17.7057L28.8398 16.8915C30.4687 16.0444 31.7947 15.0409 32.8173 13.8814C33.8403 12.7218 34.4927 11.2427 34.7753 9.44445H30.6252C30.091 10.5388 29.2809 11.6727 28.1948 12.8455L27.2631 12.2068C28.9572 10.5388 30.1276 8.53225 30.775 6.18658L31.7718 6.53852C31.6718 7.02491 31.4461 7.65906 31.0941 8.44094H36Z" fill="white"/>
<path d="M11.112 4.39251C11.5163 4.39251 11.8441 4.06475 11.8441 3.66043C11.8441 3.25611 11.5163 2.92834 11.112 2.92834C10.7077 2.92834 10.3799 3.25611 10.3799 3.66043C10.3799 4.06475 10.7077 4.39251 11.112 4.39251Z" fill="black"/>
<path d="M16.9679 1.46419C17.3722 1.46419 17.7 1.13642 17.7 0.732093C17.7 0.327769 17.3722 0 16.9679 0C16.5636 0 16.2358 0.327769 16.2358 0.732093C16.2358 1.13642 16.5636 1.46419 16.9679 1.46419Z" fill="black"/>
<path d="M25.752 20.4967C26.1564 20.4967 26.4841 20.169 26.4841 19.7646C26.4841 19.3603 26.1564 19.0326 25.752 19.0326C25.3477 19.0326 25.02 19.3603 25.02 19.7646C25.02 20.169 25.3477 20.4967 25.752 20.4967Z" fill="black"/>
<path d="M23.3902 1.64924L23.281 1.59155L23.4105 1.34586L22.9822 1.12051L22.8527 1.3662L22.7436 1.30851L23.0308 0.763184L23.1399 0.820871L23.015 1.05784L23.4433 1.2832L23.5682 1.04622L23.6774 1.10391L23.3902 1.64924Z" fill="white"/>
<path d="M24.358 1.87544C24.2767 2.02982 24.1277 2.04974 23.9107 1.9352C23.7027 1.82564 23.638 1.69657 23.7164 1.54758L23.8907 1.2164L23.9999 1.27409L23.8272 1.60236C23.77 1.71151 23.8119 1.80364 23.9542 1.87834C24.0916 1.95056 24.1879 1.93396 24.2435 1.82813L24.419 1.49446L24.5282 1.55215L24.358 1.87544Z" fill="white"/>
<path d="M24.4547 2.20997L24.7419 1.66464L24.9905 1.79537C25.0648 1.83438 25.1183 1.87713 25.1507 1.92361C25.1831 1.97009 25.1893 2.01201 25.1694 2.04977C25.1536 2.07965 25.1262 2.09957 25.088 2.1087C25.0494 2.11783 25.0046 2.11493 24.9531 2.1004L24.9523 2.10165C25.0075 2.13609 25.0461 2.17428 25.0681 2.21619C25.0901 2.25811 25.0913 2.29753 25.0718 2.33405C25.0469 2.38095 25.0009 2.40502 24.9336 2.40668C24.866 2.40834 24.7917 2.38759 24.7099 2.34443L24.4547 2.20997ZM24.8187 1.78375L24.7286 1.95473L24.8282 2.00703C24.8809 2.03483 24.927 2.04853 24.9656 2.0477C25.0042 2.04687 25.0316 2.03193 25.0469 2.00246C25.0739 1.951 25.0345 1.89746 24.9282 1.84144L24.8187 1.78375ZM24.6967 2.01574L24.5966 2.20582L24.7278 2.27471C24.7851 2.305 24.8336 2.31953 24.8739 2.31911C24.9141 2.31828 24.9419 2.30293 24.9581 2.27263C24.9909 2.21038 24.9415 2.14439 24.8104 2.07509L24.6967 2.01574Z" fill="white"/>
</svg>
